<svg width="35" height="35" viewBox="0 0 35 35" fill="none" xmlns="http://www.w3.org/2000/svg">
<path fill-rule="evenodd" clip-rule="evenodd" d="M4.16091 4.13H9.99198L16.5053 10.6434L15.8235 11.3252L9.59256 5.09429H5.1252V9.56165L11.3561 15.7926L10.6743 16.4744L4.16091 9.96107V4.13ZM25.0402 4.13H30.8713V9.96107L16.4836 24.3487L16.7674 24.6474C17.2234 25.1057 17.4511 25.679 17.4511 26.3354C17.4511 26.994 17.2219 27.5689 16.7628 28.028L15.038 29.7528L12.206 26.9207L8.55625 30.5704C8.27882 30.8478 7.93318 31.0013 7.53949 31.0013C7.1458 31.0013 6.80016 30.8478 6.52273 30.5704L4.43086 28.4785C4.15343 28.2011 4 27.8555 4 27.4618C4 27.0681 4.15343 26.7225 4.43086 26.445L8.08057 22.7953L5.24851 19.9632L6.97328 18.2385C7.43238 17.7794 8.00732 17.5501 8.66588 17.5501C9.32225 17.5501 9.89555 17.7778 10.3539 18.2339L10.6526 18.5176L25.0402 4.13ZM25.4396 5.09429L10.6698 19.8641L9.67651 18.9204C9.40614 18.6501 9.08007 18.5144 8.66588 18.5144C8.25169 18.5144 7.92551 18.6499 7.65514 18.9203L6.61221 19.9632L9.44428 22.7953L5.11271 27.1269C5.00395 27.2356 4.96429 27.3406 4.96429 27.4618C4.96429 27.583 5.00395 27.6879 5.11271 27.7967L7.20458 29.8886C7.31334 29.9973 7.41826 30.037 7.53949 30.037C7.66072 30.037 7.76563 29.9973 7.8744 29.8886L12.206 25.557L15.038 28.3891L16.081 27.3461C16.3513 27.0758 16.4868 26.7496 16.4868 26.3354C16.4868 25.9212 16.3513 25.595 16.081 25.3247L16.0722 25.3159L15.1372 24.3314L29.907 9.56165V5.09429H25.4396ZM26.3663 18.5144C25.9521 18.5144 25.6259 18.6499 25.3556 18.9203L18.9512 25.3247C18.6809 25.595 18.5453 25.9212 18.5453 26.3354C18.5453 26.7496 18.6809 27.0758 18.9512 27.3461L19.9942 28.3891L22.8262 25.557L27.1578 29.8886C27.2666 29.9973 27.3715 30.037 27.4927 30.037C27.6135 30.037 27.718 29.9976 27.8263 29.8898C27.8268 29.8894 27.8272 29.889 27.8276 29.8886L29.8847 27.7993L29.8873 27.7967C29.9961 27.6879 30.0357 27.583 30.0357 27.4618C30.0357 27.3406 29.9961 27.2356 29.8873 27.1269L29.8859 27.1255L25.5893 22.7939L28.42 19.9632L27.377 18.9203C27.1067 18.6499 26.7805 18.5144 26.3663 18.5144ZM24.6737 18.2385C25.1328 17.7794 25.7077 17.5501 26.3663 17.5501C27.0249 17.5501 27.5998 17.7794 28.0589 18.2385L29.7837 19.9632L26.9502 22.7967L30.5691 26.445C30.5694 26.4453 30.5696 26.4455 30.5699 26.4458C30.8468 26.7231 31 27.0685 31 27.4618C31 27.8548 30.8471 28.1999 30.5706 28.4771C30.5701 28.4776 30.5696 28.4781 30.5691 28.4785L28.5121 30.5678L28.5095 30.5704C28.232 30.8478 27.8864 31.0013 27.4927 31.0013C27.099 31.0013 26.7534 30.8478 26.4759 30.5704L22.8262 26.9207L19.9942 29.7528L18.2694 28.028C17.8103 27.5689 17.5811 26.994 17.5811 26.3354C17.5811 25.6768 17.8103 25.1019 18.2694 24.6428L24.6737 18.2385Z" fill="white"/>
</svg>
