<svg width="35" height="35" viewBox="0 0 35 35" fill="none" xmlns="http://www.w3.org/2000/svg">
<path fill-rule="evenodd" clip-rule="evenodd" d="M4.5 17.9301C4.5 17.9301 4.74913 19.2327 5.2474 19.7325C5.74566 20.2323 7.0363 20.4821 7.0363 20.4821C7.0363 20.4821 8.35851 20.233 8.85677 19.7347C9.35503 19.2365 9.60417 17.9458 9.60417 17.9458C9.60417 17.9458 9.35503 16.6236 8.85677 16.1254C8.35851 15.6271 7.05208 15.378 7.05208 15.378C7.05208 15.378 5.74945 15.6271 5.24966 16.1254C4.74989 16.6236 4.5 17.9301 4.5 17.9301ZM7.0524 16.4023C6.94221 16.4292 6.79784 16.4676 6.64388 16.517C6.47739 16.5704 6.31517 16.6318 6.17893 16.6979C6.03274 16.7689 5.96887 16.8204 5.95569 16.8335C5.95571 16.8335 5.95541 16.8338 5.9548 16.8345L5.95217 16.8374C5.94986 16.84 5.94661 16.8438 5.94251 16.849C5.93417 16.8595 5.92332 16.8743 5.91034 16.8941C5.88387 16.9345 5.85355 16.988 5.82085 17.0552C5.75459 17.1913 5.69307 17.3536 5.63948 17.5204C5.5899 17.6748 5.55135 17.8196 5.52442 17.9301C5.55126 18.0402 5.58965 18.1844 5.63901 18.3383C5.69245 18.5047 5.75382 18.667 5.81997 18.8032C5.89096 18.9494 5.94244 19.0133 5.95557 19.0264M5.95569 16.8335L5.25412 16.1298L5.95568 16.8336C5.95568 16.8336 5.95569 16.8335 5.95569 16.8335ZM7.0524 16.4023C7.16299 16.4292 7.30797 16.4676 7.46253 16.5172C7.6294 16.5706 7.79183 16.632 7.92805 16.6981C7.99528 16.7307 8.04877 16.7609 8.08919 16.7873C8.109 16.8003 8.12381 16.8111 8.13432 16.8194C8.13949 16.8235 8.1433 16.8267 8.1459 16.829C8.14851 16.8313 8.14969 16.8325 8.14966 16.8325C8.14937 16.8322 8.1536 16.8364 8.16179 16.8468C8.16991 16.8571 8.18061 16.8718 8.19351 16.8916C8.21982 16.9321 8.25007 16.986 8.28276 17.0539C8.34899 17.1914 8.41051 17.3557 8.46409 17.5247C8.51413 17.6825 8.55294 17.8306 8.57989 17.9431C8.55314 18.0519 8.51494 18.194 8.46589 18.3456C8.41258 18.5103 8.35136 18.6709 8.2854 18.8058C8.21467 18.9504 8.16324 19.0141 8.14966 19.0276C8.14995 19.0273 8.14573 19.0316 8.13533 19.0398C8.12502 19.0479 8.11033 19.0586 8.09049 19.0715C8.05001 19.0978 7.99618 19.128 7.92828 19.1607C7.79073 19.227 7.62641 19.2885 7.45742 19.3421C7.29977 19.3921 7.15182 19.4308 7.03937 19.4578C6.93071 19.431 6.78877 19.3927 6.63742 19.3436C6.47273 19.2901 6.31228 19.2287 6.17745 19.1626C6.03298 19.0918 5.96931 19.0402 5.95559 19.0265M27.0181 19.0265C27.3322 19.3415 27.6751 19.4821 28.0988 19.4821C28.5535 19.4821 28.9046 19.3352 29.2122 19.0276C29.526 18.7138 29.6667 18.3706 29.6667 17.9458C29.6667 17.4911 29.5197 17.14 29.2122 16.8325C28.9015 16.5218 28.5543 16.378 28.1146 16.378C27.6791 16.378 27.3317 16.521 27.0182 16.8336C26.7064 17.1445 26.5625 17.4913 26.5625 17.9301C26.5625 18.3655 26.7055 18.7129 27.0181 19.0264M26.3122 16.1254C25.8124 16.6236 25.5625 17.2252 25.5625 17.9301C25.5625 18.6319 25.8116 19.2327 26.3099 19.7325C26.8082 20.2323 27.4045 20.4821 28.0988 20.4821C28.8142 20.4821 29.421 20.233 29.9193 19.7347C30.4175 19.2365 30.6667 18.6402 30.6667 17.9458C30.6667 17.2305 30.4175 16.6236 29.9193 16.1254C29.421 15.6271 28.8194 15.378 28.1146 15.378C27.4128 15.378 26.812 15.6271 26.3122 16.1254ZM14.6915 14.9469C15.3525 15.6079 16.1302 15.9301 17.0833 15.9301C18.0665 15.9301 18.8455 15.6041 19.4883 14.952C20.1389 14.292 20.4583 13.5127 20.4583 12.5551C20.4583 11.5673 20.1352 10.7867 19.4934 10.145C18.8517 9.50322 18.0711 9.18005 17.0833 9.18005C16.1257 9.18005 15.3464 9.49949 14.6864 10.15C14.0342 10.7929 13.7083 11.5719 13.7083 12.5551C13.7083 13.5081 14.0305 14.2859 14.6915 14.9469ZM17.0833 16.9301C15.8681 16.9301 14.8351 16.5047 13.9844 15.654C13.1337 14.8033 12.7083 13.7703 12.7083 12.5551C12.7083 11.3155 13.1337 10.2764 13.9844 9.43787C14.8351 8.59932 15.8681 8.18005 17.0833 8.18005C18.3229 8.18005 19.362 8.59932 20.2005 9.43787C21.0391 10.2764 21.4583 11.3155 21.4583 12.5551C21.4583 13.7703 21.0391 14.8033 20.2005 15.654C19.362 16.5047 18.3229 16.9301 17.0833 16.9301Z" fill="white"/>
<path fill-rule="evenodd" clip-rule="evenodd" d="M8.52989 22.7429L8.31601 23.8857C8.2591 24.1897 8.21042 24.4956 8.16999 24.8033C8.07102 25.5565 8.02174 26.3409 8.02174 27.1562V30.9982H1.5V27.899C1.5 26.415 1.95991 25.1871 2.94239 24.2076C3.93956 23.2134 5.27594 22.6952 6.94841 22.6952C7.09081 22.6952 7.23066 22.6975 7.36795 22.7023L8.52989 22.7429ZM26.1957 30.9982H8.80435V27.1562C8.80435 25.8803 9.00807 24.7188 9.41525 23.6653C9.82446 22.6065 10.4072 21.6667 11.1724 20.8495C11.9375 20.0325 12.8631 19.4084 13.9542 18.9895C15.0432 18.5714 16.2259 18.3618 17.5 18.3618C18.7979 18.3618 19.9927 18.5712 21.0821 18.9895C22.1731 19.4084 23.0987 20.0325 23.8638 20.8495C24.6289 21.6666 25.205 22.6056 25.6018 23.6626C25.9975 24.7163 26.1957 25.8789 26.1957 27.1562V30.9982ZM6.31246 23.7255C6.51582 23.7054 6.72769 23.6952 6.94841 23.6952C7.07961 23.6952 7.20782 23.6974 7.33307 23.7017C7.27283 24.0236 7.2213 24.3474 7.17851 24.673C7.17743 24.6812 7.17636 24.6894 7.1753 24.6976C7.0724 25.4895 7.02174 26.3094 7.02174 27.1562V29.9982H2.5V27.899C2.5 26.6448 2.87814 25.6837 3.64844 24.9157C4.31116 24.255 5.17974 23.8373 6.31246 23.7255ZM26.5096 22.7432L27.6621 22.7022C27.7952 22.6975 27.9296 22.6952 28.0652 22.6952C29.7397 22.6952 31.0749 23.2035 32.0669 24.1801C33.0416 25.1396 33.5 26.3755 33.5 27.899V30.9982H26.9783V27.1562C26.9783 26.3229 26.9353 25.5352 26.8488 24.7935C26.8131 24.4871 26.7679 24.1821 26.7134 23.8783L26.5096 22.7432ZM27.8444 24.6977C27.8436 24.691 27.8429 24.6844 27.8421 24.6777C27.804 24.3509 27.7558 24.0255 27.6977 23.7016C27.8187 23.6973 27.9412 23.6952 28.0652 23.6952C28.2917 23.6952 28.5088 23.7057 28.7168 23.7263C29.8481 23.8383 30.7113 24.2488 31.3654 24.8927C32.1178 25.6335 32.5 26.596 32.5 27.899V29.9982H27.9783V27.1562C27.9783 26.2962 27.9343 25.4762 27.8444 24.6977ZM25.1957 29.9982H9.80435V27.1562C9.80435 25.9882 9.99052 24.9507 10.348 24.0258C10.7127 23.0822 11.228 22.2531 11.9023 21.5331C12.5622 20.8284 13.3601 20.2888 14.3126 19.923C15.2773 19.5527 16.3373 19.3618 17.5 19.3618C18.689 19.3618 19.7608 19.5534 20.7236 19.923C21.6762 20.2888 22.474 20.8284 23.1339 21.5331C23.8061 22.2509 24.3135 23.0761 24.6657 24.0141C25.014 24.9418 25.1957 25.9834 25.1957 27.1562V29.9982Z" fill="white"/>
</svg>
