<svg width="29" height="29" viewBox="0 0 29 29" fill="none" xmlns="http://www.w3.org/2000/svg">
<path d="M7.77503 12.9481L1.16687 6.33993V1H6.5068L13.115 7.60816M24.1619 27.5661L20.0235 23.4277L17.0865 26.3646L15.6514 24.9295C15.2732 24.5513 15.0841 24.0841 15.0841 23.5278C15.0841 22.9716 15.2732 22.5043 15.6514 22.1261L22.293 15.4845C22.6712 15.1063 23.1384 14.9172 23.6947 14.9172C24.2509 14.9172 24.7182 15.1063 25.0964 15.4845L26.5315 16.9197L23.5946 19.8566L27.6996 23.9951C27.8999 24.1953 28 24.4289 28 24.6959C28 24.9629 27.8999 25.1965 27.6996 25.3968L25.5637 27.5661C25.3634 27.7664 25.1298 27.8665 24.8628 27.8665C24.5958 27.8665 24.3622 27.7664 24.1619 27.5661ZM27.8665 6.33993L12.7478 21.4586L13.382 22.1261C13.7602 22.5043 13.9493 22.9716 13.9493 23.5278C13.9493 24.0841 13.7602 24.5513 13.382 24.9295L11.9468 26.3646L9.00989 23.4277L4.87145 27.5661C4.6712 27.7664 4.43758 27.8665 4.17058 27.8665C3.90358 27.8665 3.66996 27.7664 3.46972 27.5661L1.30037 25.3968C1.10012 25.1965 1 24.9629 1 24.6959C1 24.4289 1.10012 24.1953 1.30037 23.9951L5.43881 19.8566L2.50185 16.9197L3.93696 15.4845C4.3152 15.1063 4.78245 14.9172 5.33869 14.9172C5.89493 14.9172 6.36218 15.1063 6.74042 15.4845L7.40791 16.1187L22.5266 1H27.8665V6.33993Z" stroke="white"/>
</svg>
