<svg width="32" height="21" viewBox="0 0 32 21" fill="none" xmlns="http://www.w3.org/2000/svg">
<path d="M7.57086 9.66643C7.57971 9.70385 7.58717 9.73686 7.59323 9.76451C7.58729 9.79094 7.58003 9.82229 7.57146 9.85771C7.54244 9.97775 7.49903 10.142 7.4416 10.3194C7.31759 10.7027 7.15968 11.0447 7.00322 11.2011C6.84851 11.3558 6.50144 11.514 6.10855 11.6386C5.92706 11.6962 5.75877 11.7397 5.63566 11.7688C5.5983 11.7776 5.56535 11.7851 5.53773 11.7911C5.51134 11.7852 5.48005 11.7779 5.44471 11.7693C5.32469 11.7402 5.16048 11.6967 4.98306 11.6391C4.59992 11.5147 4.25799 11.3564 4.10148 11.1994C3.94524 11.0427 3.78712 10.698 3.66293 10.311C3.60545 10.1319 3.562 9.96604 3.53294 9.84481C3.5243 9.80874 3.51698 9.77685 3.511 9.75001C3.51701 9.72303 3.52437 9.69096 3.53307 9.65468C3.56222 9.53313 3.6058 9.36689 3.66345 9.18745C3.78809 8.79949 3.94658 8.45503 4.10268 8.2994C4.25941 8.14315 4.60411 7.98504 4.99109 7.86085C5.17019 7.80337 5.33604 7.75992 5.45728 7.73086C5.49342 7.7222 5.52536 7.71487 5.55223 7.70888C5.57925 7.71488 5.61138 7.72223 5.64774 7.73093C5.76931 7.75999 5.93558 7.80345 6.11506 7.86093C6.50311 7.98523 6.84764 8.14329 7.00322 8.29887C7.15793 8.45358 7.31612 8.80065 7.44071 9.19353C7.49826 9.37502 7.54176 9.54332 7.57086 9.66643ZM26.5988 11.8021C26.0398 11.8021 25.5702 11.6068 25.164 11.1994C24.7586 10.7928 24.5625 10.3187 24.5625 9.75C24.5625 9.17819 24.7594 8.70398 25.1652 8.2994C25.5718 7.89399 26.0459 7.69792 26.6146 7.69792C27.1869 7.69792 27.6613 7.8944 28.0657 8.29887C28.4686 8.70177 28.6667 9.18074 28.6667 9.76579C28.6667 10.3253 28.4718 10.7951 28.0657 11.2011C27.6628 11.604 27.1838 11.8021 26.5988 11.8021ZM15.5833 8.25C14.4992 8.25 13.5938 7.87627 12.8379 7.1204C12.0821 6.36454 11.7083 5.45918 11.7083 4.375C11.7083 3.26362 12.084 2.35458 12.8354 1.6139C13.5907 0.869355 14.4969 0.5 15.5833 0.5C16.697 0.5 17.6068 0.87122 18.347 1.61137C19.0871 2.35151 19.4583 3.26133 19.4583 4.375C19.4583 5.46147 19.089 6.36762 18.3444 7.12296C17.6038 7.87437 16.6947 8.25 15.5833 8.25Z" stroke="white"/>
<path d="M0.5 20.5V18.2238C0.5 17.0198 0.939673 16.0651 1.82603 15.3173C2.71809 14.5648 3.90961 14.1667 5.44841 14.1667C5.73238 14.1667 6.00418 14.1751 6.26393 14.1918C6.33003 14.1961 6.39595 14.2017 6.46168 14.2085C6.34018 14.6582 6.24379 15.1123 6.17259 15.5708C6.07175 16.2202 6.02174 16.8952 6.02174 17.5952V20.5H0.5ZM7.80435 20.5V17.5952C7.80435 16.5423 8.00311 15.5927 8.3932 14.7387C8.7869 13.8768 9.34348 13.1201 10.0671 12.4662C10.7835 11.8189 11.6444 11.3287 12.6581 10.9993C13.6779 10.668 14.7906 10.5 16 10.5C17.2346 10.5 18.3593 10.6683 19.3781 10.9993C20.3918 11.3287 21.2527 11.8189 21.9691 12.4662C22.6917 13.1191 23.2413 13.8742 23.6227 14.7337C24.0022 15.5889 24.1957 16.5403 24.1957 17.5952V20.5H7.80435ZM25.9783 20.5V17.5952C25.9783 16.8815 25.9348 16.205 25.8468 15.5663C25.784 15.1107 25.6926 14.6582 25.5729 14.2089C25.6386 14.2018 25.7044 14.1961 25.7704 14.1918C26.029 14.1751 26.294 14.1667 26.5652 14.1667C28.1096 14.1667 29.3001 14.5583 30.1854 15.2958C31.0598 16.0242 31.5 16.9835 31.5 18.2238V20.5H25.9783Z" stroke="white"/>
</svg>
