<svg width="600" height="216" fill="none" xmlns="http://www.w3.org/2000/svg"><path d="M220.002 20.934c0 .513-.051 1.111-.153 1.796a23.472 23.472 0 0 1-.437 2.129 35.618 35.618 0 0 1-.615 2.283 39.929 39.929 0 0 1-.719 2.283 32.916 32.916 0 0 1-.795 2.027 15.016 15.016 0 0 1-.744 1.565 2.26 2.26 0 0 1-.487.538c-.206.172-.419.36-.642.565a6.316 6.316 0 0 0-.59.564c-.171.188-.256.368-.256.54-.137.016-.351.059-.642.127a7.31 7.31 0 0 0-.923.231 6.486 6.486 0 0 0-.872.308c-.257.103-.411.205-.462.308-.188.36-.308.599-.359.718-.034.12-.077.197-.129.231a1.165 1.165 0 0 1-.307.026c-.137-.017-.411.017-.821.102-.154.035-.351.086-.59.154-.223.069-.462.137-.719.206-.239.068-.47.12-.692.154a2.523 2.523 0 0 1-.539.076c-.376 0-.744-.06-1.103-.18a3.238 3.238 0 0 0-1.078-.179c-.239 0-.453.035-.641.103-.633.24-1.24.41-1.821.513-.565.103-1.189.154-1.873.154l-3.617-.488a4.564 4.564 0 0 1-.821.129 6.627 6.627 0 0 1-.821.051c-.342 0-.684-.017-1.026-.051a22.933 22.933 0 0 1-1.001-.129 2.551 2.551 0 0 0-.257-.718l-.307-.718c-.103-.24-.197-.479-.283-.718a2.435 2.435 0 0 1-.128-.77c0-.445.111-.761.334-.95a1.71 1.71 0 0 1 .846-.41 7.085 7.085 0 0 1 1.078-.18 3.905 3.905 0 0 0 1.103-.307c.342-.154.624-.394.846-.719.223-.325.334-.812.334-1.462 0-.393-.034-.787-.103-1.18a13.881 13.881 0 0 0-.205-1.18c-.068-.41-.137-.812-.205-1.206a9.17 9.17 0 0 1-.077-1.18c0-.29.026-.573.077-.846a5.04 5.04 0 0 0 .077-.873c0-.53-.043-1.051-.128-1.564-.069-.53-.103-1.06-.103-1.591 0-.616.034-1.223.103-1.822.068-.615.102-1.23.102-1.847 0-.581-.06-1.146-.179-1.693a9.7 9.7 0 0 1-.154-1.744c0-.325.008-.65.025-.975.017-.325.026-.65.026-.975a10.9 10.9 0 0 0-.051-1.077 6.016 6.016 0 0 0-.206-1.078 5.539 5.539 0 0 1-.205-1.257 5.16 5.16 0 0 0-.154-1.103 1.838 1.838 0 0 0-.487-.872c-.24-.257-.642-.445-1.206-.565a1.174 1.174 0 0 1-.436-.154 3.128 3.128 0 0 0-.257-.23 1.256 1.256 0 0 0-.333-.231c-.12-.069-.308-.12-.564-.154-.753-.103-1.129-.522-1.129-1.257 0-.41.077-.77.231-1.078.154-.325.35-.616.59-.872.239-.257.504-.488.795-.693.308-.222.607-.444.898-.667.445-.342.864-.547 1.257-.615a5.903 5.903 0 0 1 1.257-.129h1.103c.496 0 .983-.017 1.462-.051.496-.051.992-.077 1.488-.077.291 0 .582.017.873.051.307.035.607.094.897.18.154.051.3.111.437.18.153.05.307.076.461.076.24 0 .445-.068.616-.205.171-.154.325-.23.462-.23.034 0 .051.016.051.05a.398.398 0 0 1-.026.129v.103c0 .102.069.153.206.153.085 0 .145-.05.179-.153.052-.103.154-.172.308-.206.12.052.214.111.282.18.069.051.129.102.18.154a.986.986 0 0 0 .231.128c.102.034.231.051.385.051.359 0 .718-.025 1.077-.077a5.744 5.744 0 0 1 1.078-.102c.461 0 .889.077 1.282.23.394.155.761.351 1.103.59.36.223.702.48 1.027.77.324.291.649.573.974.847.24.205.479.368.719.487.256.103.496.214.718.334.222.102.436.24.641.41.206.154.385.394.539.719.171.359.368.71.59 1.051.24.325.47.65.693.975.239.308.47.633.692.975.223.325.419.676.59 1.052.428.975.727 2.001.898 3.079.189 1.06.377 2.112.565 3.155.085.445.179.898.282 1.36.103.444.154.889.154 1.334 0 .239-.043.47-.128.692a1.904 1.904 0 0 0-.129.693c0 .154.026.29.077.41.052.12.111.24.18.36.068.12.128.256.179.41.052.154.077.334.077.539zm-4.284-1.72a6.81 6.81 0 0 0-.282-1.949 5.896 5.896 0 0 0-.872-1.77c.188-.188.308-.41.359-.667.051-.256.077-.505.077-.744a5.85 5.85 0 0 0-.051-.77 10.624 10.624 0 0 1-.026-.744.491.491 0 0 0-.154-.359 1.644 1.644 0 0 0-.308-.282 2.646 2.646 0 0 0-.333-.282.87.87 0 0 1-.257-.36 4.719 4.719 0 0 1-.154-.435 22.33 22.33 0 0 0-.051-.385 1.8 1.8 0 0 0-.103-.385 2.755 2.755 0 0 0-.256-.487 2.896 2.896 0 0 1-.206-.385 1.397 1.397 0 0 1-.076-.488c0-.17.025-.35.076-.538a.78.78 0 0 0-.333-.334 1.748 1.748 0 0 0-.513-.23 3.76 3.76 0 0 0-.693-.155c-.256 0-.53-.077-.821-.23a29.041 29.041 0 0 1-.872-.514c-.308-.188-.624-.359-.949-.513a2.099 2.099 0 0 0-.949-.23c-.496 0-.984.042-1.463.128-.478.085-.966.162-1.462.23-.376.052-.787.086-1.231.103-.445 0-.864.043-1.257.128a2.017 2.017 0 0 0-.95.488c-.256.222-.384.581-.384 1.077 0 .599.034 1.206.102 1.822.086.615.129 1.248.129 1.898 0 1.351-.06 2.702-.18 4.053a52.64 52.64 0 0 0-.154 4.054c0 .633.034 1.265.103 1.898.068.616.102 1.249.102 1.899 0 .838-.068 1.667-.205 2.488-.12.821-.18 1.65-.18 2.489v1.103c0 .393.035.77.103 1.129.068.359.197.684.385.974.188.291.47.505.846.642.531.188 1.052.376 1.565.564a5.403 5.403 0 0 0 1.668.257c.342 0 .675-.077 1-.231a5.607 5.607 0 0 1 1.001-.41c.222-.07.47-.129.744-.18.291-.069.573-.137.846-.206a5.13 5.13 0 0 0 .77-.307c.257-.137.47-.3.641-.488.257-.29.505-.547.744-.77.24-.222.573-.376 1.001-.461.205-.034.333-.103.385-.206.068-.12.111-.247.128-.384.034-.154.077-.308.128-.462a.823.823 0 0 1 .334-.436c.273-.205.479-.445.615-.719a3.16 3.16 0 0 0 .334-.872 8.72 8.72 0 0 0 .154-.923c.051-.325.12-.642.205-.95.188-.684.402-1.376.641-2.077a6.146 6.146 0 0 0 .385-2.13.897.897 0 0 0-.128-.487 1.044 1.044 0 0 1-.128-.513c0-.103.017-.163.051-.18l.154-.102a.604.604 0 0 0 .128-.206c.052-.085.077-.248.077-.487zM253.173 11.826c0 .069-.043.206-.128.411-.086.205-.188.428-.308.667-.103.24-.214.462-.333.667-.12.205-.214.342-.283.41l.052.026a.226.226 0 0 0-.103.026h-.128a.961.961 0 0 1-.231.025h-.231l.103-.025a3.545 3.545 0 0 1-1.078-.205c-.308-.137-.564-.385-.769-.744a4.81 4.81 0 0 1-.154-.36 23.087 23.087 0 0 1-.385-1.154 2.642 2.642 0 0 1-.052-.41c0-.137.009-.283.026-.437.034-.154.051-.299.051-.436 0-.53-.051-1.052-.153-1.565a7.93 7.93 0 0 1-.154-1.565c0-.342.042-.675.128-1 .085-.325.239-.624.462-.898h-.129c-.205 0-.367-.06-.487-.18-.12-.136-.316-.205-.59-.205-.65 0-1.283.077-1.899.231a8.003 8.003 0 0 1-1.949.231h-.821a13.595 13.595 0 0 0-.847-.026c-.53 0-1.052.06-1.565.18-.513.12-1.009.18-1.488.18-.051 0-.077-.009-.077-.026 0-.034.06-.077.18-.128.12-.069.18-.12.18-.154 0-.069-.06-.103-.18-.103h-.205c-.137 0-.257.068-.359.205a.668.668 0 0 1-.411.283c-.256.068-.53.102-.821.102h-.846a15.3 15.3 0 0 1-.744-.026 9.426 9.426 0 0 1-.975-.102 4.607 4.607 0 0 1-.898-.282c-.257-.137-.402-.325-.436-.565-.188.052-.317.146-.385.282-.051.12-.103.248-.154.385a1.133 1.133 0 0 1-.179.385c-.086.103-.257.163-.514.18-.478.034-.786.188-.923.461a2.034 2.034 0 0 0-.205.924c0 .188.008.376.025.564.017.189.026.377.026.565 0 .684-.017 1.368-.051 2.052a79.533 79.533 0 0 0-.026 2.027v1.18c.017.479.051.958.103 1.437.068.461.162.88.282 1.257.12.359.291.564.513.615.137.034.282.06.436.077h.462c.598 0 1.18-.068 1.744-.205a7.704 7.704 0 0 1 1.77-.205c.24 0 .462.034.667.102.223.069.445.103.667.103.325 0 .573-.154.744-.462a3.22 3.22 0 0 0 .385-1.103c.086-.427.137-.855.154-1.283.017-.427.026-.744.026-.949 0-.427-.017-.846-.052-1.257a32.283 32.283 0 0 1-.025-1.283h.154c.427 0 .829.069 1.205.206.377.136.77.205 1.181.205.171 0 .299-.009.384-.026 0 .342.06.684.18 1.026.12.342.18.693.18 1.052 0 .445-.24.727-.719.847.137.24.248.479.334.718.085.24.128.488.128.744 0 .188-.017.376-.051.565-.035.17-.052.35-.052.538 0 .171.052.308.154.41.12.086.18.189.18.309 0 .205-.086.461-.257.77a2.099 2.099 0 0 0-.231.948c0 .377.035.77.103 1.18.068.41.145.838.231 1.283.085.445.162.898.231 1.36.068.444.102.898.102 1.36 0 .273-.017.555-.051.846-.017.29-.077.573-.179.847a2.447 2.447 0 0 1-.385.718c-.154.222-.359.41-.616.564a1.735 1.735 0 0 1-.821-.282 2.64 2.64 0 0 1-.564-.59 3.898 3.898 0 0 1-.334-.77 8.054 8.054 0 0 1-.154-.872 8.187 8.187 0 0 1-.102-1.231c0-.376-.086-.693-.257-.95-.154-.273-.462-.487-.923-.64-.445-.155-1.146-.232-2.104-.232-.274 0-.667.026-1.18.077a9.117 9.117 0 0 0-1.488.282c-.496.12-.932.3-1.308.54-.36.239-.539.538-.539.897 0 .205.017.41.051.616.051.188.077.385.077.59 0 .17-.008.342-.026.513-.017.171-.025.35-.025.539 0 .462.025.923.077 1.385.051.445.077.898.077 1.36 0 .496-.069.983-.205 1.462-.12.479-.18.966-.18 1.462 0 .548.128.984.385 1.309a2.77 2.77 0 0 0 1.026.718c.41.154.855.257 1.334.308.479.051.923.077 1.334.077.821 0 1.642-.052 2.463-.154a19.843 19.843 0 0 1 2.463-.154c.513 0 1.026.026 1.539.077.513.051 1.026.077 1.539.077.393 0 .829-.009 1.308-.026.479-.034.932-.12 1.36-.256a3.218 3.218 0 0 0 1.129-.59c.325-.274.53-.659.616-1.155.017-.137.059-.23.128-.282.085-.068.171-.12.256-.154.103-.051.188-.103.257-.154.068-.051.102-.137.102-.256 0-.137-.051-.291-.153-.462a2.02 2.02 0 0 1-.206-.513 6.381 6.381 0 0 1-.128-.975v-1c0-.514.077-.958.231-1.335.171-.393.256-.82.256-1.282 0-.137-.008-.265-.025-.385v-.385c0-.103.077-.205.231-.308.154-.102.333-.188.538-.256.206-.086.411-.154.616-.206.205-.05.359-.077.462-.077.427 0 .778.154 1.052.462.273.291.479.65.615 1.078.154.427.257.872.308 1.334.052.462.077.855.077 1.18 0 .53-.043 1.129-.128 1.796a23.69 23.69 0 0 1-.359 2.052 25.366 25.366 0 0 1-.488 2.052c-.188.65-.376 1.223-.564 1.72-.103.239-.205.418-.308.538a1.3 1.3 0 0 1-.308.308c-.102.068-.222.145-.359.23a1.79 1.79 0 0 0-.41.36c-.137.154-.402.256-.796.308a8.928 8.928 0 0 1-1.205.076c-.325 0-.633-.008-.924-.025a12.253 12.253 0 0 0-.667-.026c-.564 0-1.026.069-1.385.205a2.627 2.627 0 0 1-.975.206c-.222 0-.368-.043-.436-.129a.346.346 0 0 0-.308-.154.467.467 0 0 0-.334.154c-.102.103-.256.154-.461.154h-.642a7.721 7.721 0 0 0-.641-.025c-1.283 0-2.557.034-3.822.102a93.83 93.83 0 0 1-3.823.18c-.872.034-1.736.137-2.591.308-.855.17-1.719.256-2.591.256a6.21 6.21 0 0 1-1.052-.102 4.26 4.26 0 0 1-1.129-.308 2.69 2.69 0 0 1-.872-.616 1.468 1.468 0 0 1-.359-1c0-.377.137-.736.41-1.078.274-.342.599-.658.975-.95.394-.29.796-.555 1.206-.794.41-.257.744-.496 1.001-.719a2.95 2.95 0 0 1-.026-.385V31.17c.017-.256.068-.512.154-.769.034-.154.12-.333.256-.539.154-.222.231-.41.231-.564 0-.12-.025-.23-.077-.334a8.145 8.145 0 0 1-.102-.333 8.708 8.708 0 0 1-.411-1.231 7.162 7.162 0 0 1-.102-1.309v-.795c.017-.24.034-.462.051-.667.034-.222.077-.445.128-.667.069-.24.154-.505.257-.795-.069-.12-.146-.3-.231-.54-.086-.239-.128-.427-.128-.564l.359-3.642a.9.9 0 0 1-.026-.257c0-.154.026-.308.077-.462a1.54 1.54 0 0 0 .077-.487c0-.393-.068-.778-.205-1.154a3.57 3.57 0 0 1-.206-1.18c0-.138.035-.3.103-.488.069-.188.137-.393.205-.616.086-.222.163-.461.231-.718.069-.274.103-.565.103-.872 0-.24-.06-.445-.18-.616a1.13 1.13 0 0 1-.154-.59c0-.205.052-.41.154-.616.103-.205.154-.427.154-.667a2.37 2.37 0 0 0-.205-.975c-.12-.325-.248-.632-.385-.923-.205-.428-.368-.77-.487-1.026a1.78 1.78 0 0 0-.385-.642c-.154-.17-.368-.29-.641-.359-.257-.085-.633-.145-1.129-.18a1.701 1.701 0 0 1-.693-.205 2.65 2.65 0 0 1-.564-.513 3.238 3.238 0 0 1-.385-.667 1.748 1.748 0 0 1-.154-.692c0-.308.137-.565.41-.77.274-.222.625-.393 1.052-.513.428-.137.907-.24 1.437-.308.53-.085 1.043-.145 1.539-.18.513-.05.975-.085 1.385-.102a9.36 9.36 0 0 0 .975-.077c.342-.051.676-.086 1.001-.103.325-.017.658-.025 1-.025.667 0 1.334.025 2.001.077.684.034 1.36.05 2.027.05.718 0 1.42-.068 2.104-.204a11.09 11.09 0 0 1 2.129-.206c.65 0 1.291.077 1.924.231a8.845 8.845 0 0 0 1.873.206c.598 0 1.188-.069 1.77-.206a6.883 6.883 0 0 1 1.77-.23c.257 0 .513.025.77.076.376.41.718.753 1.026 1.027.325.273.598.555.821.846.239.274.427.599.564.975.154.376.257.872.308 1.488.017.222.026.496.026.82 0 .309.008.617.025.924.017.291.06.556.129.796.085.24.213.385.384.436 0 .24-.119.359-.359.359.017.24.069.487.154.744.086.24.171.487.257.744.085.24.162.487.231.744.068.24.102.47.102.692zm-22.216 6.311a.749.749 0 0 0-.282.052c-.086.034-.146.11-.18.23.65.377 1.163.736 1.539 1.078.394.325.693.59.898.795.222.206.385.325.488.36.102.017.205-.095.307-.334a.841.841 0 0 0-.077-.872 2.084 2.084 0 0 0-.744-.693 3.924 3.924 0 0 0-1.026-.436c-.359-.12-.667-.18-.923-.18zM284.599 24.628c0 .872-.059 1.727-.179 2.565-.103.838-.18 1.694-.231 2.566a1.358 1.358 0 0 0-.411-.282.807.807 0 0 0-.436-.129.923.923 0 0 0-.538.18.544.544 0 0 0-.257.462c0 .205.094.342.282.41.206.069.411.103.616.103.171 0 .291-.009.359-.026 0 .205-.06.42-.179.641-.103.206-.24.41-.411.616a5.532 5.532 0 0 1-.513.59l-.462.462a2.592 2.592 0 0 0-.333.436c-.12.188-.257.376-.411.564a3.757 3.757 0 0 1-.436.462.752.752 0 0 1-.462.18.62.62 0 0 1-.41-.128.492.492 0 0 0-.359-.154c-.188 0-.308.102-.359.307a3.08 3.08 0 0 0-.052.565v.308c0 .085-.179.196-.538.333-.36.137-.796.29-1.309.462l-1.565.487a11.8 11.8 0 0 0-1.334.462c-.701.29-1.411.53-2.129.718a8.771 8.771 0 0 1-2.232.283 5.862 5.862 0 0 1-1.642-.231 32.142 32.142 0 0 1-1.565-.462 16.494 16.494 0 0 0-1.565-.487 5.587 5.587 0 0 0-1.616-.231c-.222 0-.513.034-.872.102-.359.069-.633.171-.821.308a1.08 1.08 0 0 0-.256.36c-.086.187-.189.282-.308.282a.963.963 0 0 1-.359-.103 8.822 8.822 0 0 1-.334-.154 3.28 3.28 0 0 1-1.001-.795 5.716 5.716 0 0 1-.692-1.103 5.243 5.243 0 0 1-.411-1.232 6.835 6.835 0 0 1-.128-1.283c0-.29.026-.573.077-.846a3.82 3.82 0 0 0 .103-.872c0-.41-.052-.813-.154-1.206a5.63 5.63 0 0 1-.129-1.206c0-.29.043-.581.129-.872.102-.29.154-.582.154-.872 0-.223-.052-.428-.154-.616a1.412 1.412 0 0 1-.154-.641.52.52 0 0 1 .154-.385.463.463 0 0 0 .179-.36c0-.205-.008-.41-.025-.615a7.458 7.458 0 0 1-.026-.616V23.5a6.19 6.19 0 0 1 .077-.59c.034-.188.094-.35.18-.487a.401.401 0 0 1 .359-.206c.308 0 .615.197.923.59.325.377.616.821.873 1.334.273.514.495 1.027.667 1.54.171.513.256.898.256 1.154a.408.408 0 0 1-.103.257.346.346 0 0 1-.256.102c.068.12.145.3.231.54.085.238.128.427.128.563a1.7 1.7 0 0 1-.103.59 2.245 2.245 0 0 0-.077.59c0 .172.035.334.103.488.086.154.171.3.257.436.136.205.256.36.359.462.102.103.214.18.333.23.12.035.248.06.385.078.154.017.351.034.59.051.342.496.727.958 1.155 1.385.427.428.889.813 1.385 1.155.77.17 1.531.308 2.283.41.753.103 1.514.154 2.283.154.633 0 1.18-.068 1.642-.205a6.012 6.012 0 0 0 1.309-.539c.41-.222.803-.47 1.18-.744.376-.29.769-.59 1.18-.898.29-.205.598-.402.923-.59.325-.188.642-.384.949-.59.308-.205.599-.427.873-.667.273-.256.504-.547.692-.872.12-.205.291-.41.513-.616.24-.222.36-.462.36-.718a.78.78 0 0 0-.026-.23 27.865 27.865 0 0 1-.154-1.591 53.994 53.994 0 0 0-.077-1.617c-.034-.513-.145-.898-.333-1.154a2.245 2.245 0 0 0-.719-.667 8.828 8.828 0 0 0-.898-.539 3.972 3.972 0 0 1-.949-.718 2.17 2.17 0 0 0-1.103-.616 7.118 7.118 0 0 0-1.231-.154 32.151 32.151 0 0 1-1.283-.077 2.372 2.372 0 0 1-1.155-.487.497.497 0 0 0-.256-.103.828.828 0 0 0-.462.154.854.854 0 0 1-.462.128c-.256 0-.521-.034-.795-.102a13.124 13.124 0 0 1-.769-.231l-.77-.257a4.18 4.18 0 0 0-.77-.18 12.27 12.27 0 0 0-.846-.102 6.12 6.12 0 0 1-.59-.077 5.85 5.85 0 0 1-.565-.205 7.47 7.47 0 0 1-.769-.462 9.928 9.928 0 0 0-2.848-1.282 9.055 9.055 0 0 0-.744-1.463 9.724 9.724 0 0 0-.564-.333c-.171-.12-.342-.248-.513-.385-.103-.171-.24-.47-.411-.898-.154-.428-.308-.88-.462-1.36-.154-.496-.29-.957-.41-1.385-.103-.428-.154-.735-.154-.924 0-.393.043-.77.128-1.128.086-.36.282-.684.59-.975.052-.034.111-.077.18-.128.085-.069.128-.146.128-.231 0-.086-.068-.146-.205-.18-.12-.051-.18-.145-.18-.282a.2.2 0 0 1 .026-.077.427.427 0 0 0 .026-.128c.119-.377.299-.736.538-1.078.24-.342.513-.667.821-.975.308-.307.625-.59.949-.846.343-.274.667-.522.975-.744.223-.154.411-.35.565-.59.171-.24.35-.41.538-.513h.36a2.524 2.524 0 0 1 .718 0h.385c.188-.069.316-.146.385-.231.068-.103.136-.197.205-.282a.757.757 0 0 1 .256-.206c.12-.05.325-.077.616-.077.188 0 .376.009.564.026h.565c.65 0 1.291-.008 1.924-.026.65-.017 1.3-.025 1.95-.025.461 0 .915.008 1.359.025.462 0 .924.035 1.386.103.307.034.607.103.897.205.291.086.599.129.924.129.308 0 .522-.06.641-.18.137-.12.24-.248.308-.385a3.3 3.3 0 0 1 .282-.385c.103-.12.283-.18.539-.18.359 0 .727.095 1.103.283.394.188.761.342 1.103.462l-.025.102a1.596 1.596 0 0 0-.077.513c0 .291.043.582.128.873l.308.82c.102.274.197.548.282.822.103.273.154.564.154.872 0 .188-.017.367-.051.538a2.32 2.32 0 0 0-.052.514c0 .342.069.59.206.744.136.136.205.265.205.384 0 .137-.06.257-.18.36-.119.085-.179.222-.179.41 0 .445.025.89.077 1.334.051.428.077.864.077 1.308 0 .154-.009.385-.026.693 0 .308-.034.616-.103.924-.051.29-.145.547-.282.77-.12.222-.299.333-.539.333-.256 0-.504-.094-.744-.282a4.822 4.822 0 0 1-.59-.59 2.346 2.346 0 0 1-.487-.77 7.777 7.777 0 0 1-.257-.898 13.846 13.846 0 0 0-.23-.898 2.943 2.943 0 0 0-.385-.847 47.944 47.944 0 0 1-.796-1.18l-.718-1.231c-.188-.308-.35-.522-.487-.641a.986.986 0 0 0-.436-.231 1.708 1.708 0 0 0-.539-.077c-.188 0-.428-.026-.718-.077a6.083 6.083 0 0 1-.924-.231c-.291-.103-.59-.197-.898-.282a7.747 7.747 0 0 0-.898-.257 3.433 3.433 0 0 0-.923-.128c-.496 0-1.001.077-1.514.23-.513.155-1.026.351-1.539.59-.513.223-1.018.463-1.514.72-.496.239-.975.444-1.436.615a6.763 6.763 0 0 0-.642 2.924c0 .753.086 1.369.257 1.847.171.48.402.89.692 1.232.308.325.65.616 1.027.872.393.257.803.53 1.231.821.445.29.881.488 1.308.59.445.086.924.128 1.437.128.291 0 .573-.008.847-.025.29-.017.581-.026.872-.026.325 0 .633.043.923.128.291.086.573.189.847.308.291.103.581.197.872.282.291.086.59.129.898.129.291 0 .564-.017.821-.052.274-.034.547-.051.821-.051.239 0 .453.06.641.18.188.102.377.23.565.384.188.137.376.265.564.385.205.12.428.188.667.206.342.17.624.324.847.461.222.137.419.282.59.436.188.154.359.342.513.565.171.222.359.496.564.82.188.326.436.608.744.847.308.24.556.53.744.872.069.12.111.266.128.437.018.154.043.308.077.461.035.137.086.265.154.385.086.103.214.163.385.18.017.188.026.376.026.564.017.171.025.35.025.539zM315.718 35.608c0 .188-.052.376-.154.564a2.549 2.549 0 0 1-.385.488 2.76 2.76 0 0 1-.513.359 1.302 1.302 0 0 1-.539.128c-.119 0-.239-.008-.359-.026a2.535 2.535 0 0 0-.359-.025c-.154 0-.257.051-.308.154-.051.085-.103.18-.154.282a.722.722 0 0 1-.179.282c-.086.103-.24.154-.462.154-.137 0-.282-.017-.436-.051a2.125 2.125 0 0 0-.462-.052c-.325 0-.641.06-.949.18a2.201 2.201 0 0 1-.949.205c-.291 0-.727-.051-1.309-.154a9.915 9.915 0 0 1-1.77-.436 7.084 7.084 0 0 1-1.539-.692c-.445-.291-.667-.625-.667-1.001 0-.29.162-.581.487-.872.342-.308.719-.642 1.129-1 .41-.377.778-.796 1.103-1.258.342-.462.513-1 .513-1.616 0-.36-.077-.71-.231-1.052a4.015 4.015 0 0 0-.538-.949 5.162 5.162 0 0 0-.77-.847 28.736 28.736 0 0 0-.795-.718 1.097 1.097 0 0 0-.385-.051 6.36 6.36 0 0 0-1.385.154 7.602 7.602 0 0 1-1.386.128 2.89 2.89 0 0 1-.744-.103c-.239-.068-.402-.24-.487-.513-.445.223-.89.436-1.334.642-.445.188-.898.359-1.36.513-.291.102-.504.18-.641.23a.882.882 0 0 0-.282.18.875.875 0 0 0-.129.308 2.652 2.652 0 0 1-.179.59 1.25 1.25 0 0 0-.103.462v.462c0 .222-.043.401-.128.538-.086.12-.18.24-.282.36a5.66 5.66 0 0 0-.257.333.78.78 0 0 0-.128.462c0 .154.026.29.077.41l-.026.129c0 .256.069.461.205.615.137.137.3.248.488.334.205.068.419.137.641.205.223.068.419.154.59.257.171.102.334.273.488.513.171.222.316.47.436.744.137.256.248.521.333.795.086.256.129.479.129.667v.128h-.334c-.684 0-1.368.034-2.052.103-.667.051-1.334.11-2.001.18a38.72 38.72 0 0 1-2.027.205c-.667.068-1.343.102-2.027.102-.239 0-.59-.008-1.051-.026a8.844 8.844 0 0 1-1.334-.153 3.981 3.981 0 0 1-1.181-.36c-.325-.188-.487-.453-.487-.795 0-.359.077-.658.231-.898.171-.24.385-.436.641-.59.274-.17.573-.308.898-.41.342-.12.676-.231 1.001-.334.342-.102.658-.205.949-.308.308-.102.564-.24.769-.41.206-.171.377-.445.514-.821.136-.393.248-.812.333-1.257.086-.445.163-.88.231-1.308.068-.445.128-.796.18-1.052.017-.086.025-.188.025-.308.017-.137.026-.274.026-.41.017-.137.025-.266.025-.385a.67.67 0 0 1 .077-.257c.171-.29.3-.462.385-.513a.844.844 0 0 0 .205-.128c.052-.034.077-.12.077-.257.018-.154.026-.462.026-.923 0-.206.043-.36.128-.462.086-.12.171-.223.257-.308.103-.085.197-.162.282-.23a.449.449 0 0 0 .128-.334c0-.24-.068-.454-.205-.642a1.177 1.177 0 0 1-.205-.667c0-.136.034-.256.103-.359.068-.102.145-.197.23-.282.103-.086.189-.171.257-.257a.636.636 0 0 0 .103-.359c0-.188-.043-.376-.129-.564a1.65 1.65 0 0 1-.102-.565c0-.136.042-.23.128-.282.103-.068.205-.12.308-.154.12-.034.222-.06.308-.077.102-.034.154-.077.154-.128-.052-.103-.146-.154-.283-.154-.205 0-.307.111-.307.334a1.61 1.61 0 0 1-.308-.283.647.647 0 0 1-.129-.384.85.85 0 0 1 .129-.462l.282-.513c.12-.188.222-.402.308-.642.085-.239.128-.53.128-.872 0-.359-.051-.701-.154-1.026a3.542 3.542 0 0 1-.154-1.026c0-.171.034-.342.103-.513.085-.171.179-.334.282-.488.12-.17.231-.333.333-.487.12-.171.206-.35.257-.539.103-.325.154-.667.154-1.026.017-.36.026-.718.026-1.077.017-.36.042-.71.077-1.052.051-.36.162-.693.333-1 .154-.274.274-.497.359-.668.086-.17.163-.333.231-.487.068-.171.128-.35.18-.539.051-.205.102-.47.154-.795.085-.496.213-.975.384-1.437.189-.462.317-.94.385-1.436.034-.377.052-.693.052-.95a2.81 2.81 0 0 1 .128-.718c.085-.205.222-.385.41-.539.205-.154.513-.308.924-.461a6.252 6.252 0 0 1 1.334-.308 8.75 8.75 0 0 1 1.334-.103c.513 0 1.043.026 1.59.077.052.29.163.556.334.795.171.223.35.445.539.667.205.223.393.454.564.693.188.222.316.479.385.77a6.9 6.9 0 0 1 .154 1.128c.034.342.179.684.436 1.027.12.188.179.41.179.667 0 .393-.051.77-.153 1.128-.103.36-.154.727-.154 1.103 0 .223.068.59.205 1.104.137.513.299 1.069.487 1.667.188.582.368 1.154.539 1.719.171.547.299.975.385 1.283.154.65.231 1.317.231 2 .017.685.128 1.352.333 2.002.205.684.385 1.368.539 2.052.154.667.256 1.36.308 2.078.034.667.119 1.317.256 1.95.137.615.283 1.24.436 1.872.154.616.291 1.24.411 1.873.137.633.205 1.291.205 1.976 0 .256-.026.521-.077.795a1.271 1.271 0 0 1-.333.718c.359.428.761.89 1.205 1.385.462.496.915.89 1.36 1.18.171.103.436.18.795.231.36.052.719.12 1.078.206.376.068.701.18.975.333.29.137.436.342.436.616zM304.969 21.78c0-.154-.06-.35-.18-.59-.12-.256-.256-.539-.41-.846a11.18 11.18 0 0 1-.385-1c-.12-.36-.18-.736-.18-1.13 0-.461-.068-.915-.205-1.36a7.919 7.919 0 0 1-.282-1.385 51.846 51.846 0 0 0-.128-1.231 5.046 5.046 0 0 0-.257-1.283 2.259 2.259 0 0 0-.641-1c-.274-.274-.676-.41-1.206-.41a.546.546 0 0 1-.18.307 2.572 2.572 0 0 1-.307.154 8.143 8.143 0 0 1-.334.103.536.536 0 0 0-.282.18.786.786 0 0 1 .025.23c0 .308-.068.599-.205.872-.119.257-.231.522-.333.796-.12.29-.205.598-.257.923a8.406 8.406 0 0 0-.051.924c0 .273.008.539.026.795.017.257.025.513.025.77 0 .393-.034.735-.102 1.026-.069.273-.146.53-.231.77-.086.239-.163.47-.231.692a2.081 2.081 0 0 0-.103.667c0 .513.017.958.052 1.334.034.376.111.693.23.95.12.239.291.427.514.564.222.12.53.18.923.18.274 0 .667-.035 1.18-.103a9.808 9.808 0 0 0 1.565-.334c.53-.17.983-.385 1.36-.641.393-.257.59-.564.59-.924zM346.964 10.826c0 .735-.213 1.308-.641 1.719-.41.41-.975.616-1.693.616-.239 0-.47-.018-.693-.052a9.788 9.788 0 0 1-.667-.18 3.977 3.977 0 0 1-.641-1.41 51.21 51.21 0 0 1-.334-1.72 26.537 26.537 0 0 0-.307-1.744 5.125 5.125 0 0 0-.565-1.539 2.764 2.764 0 0 0-1.026-1.103c-.428-.29-1.009-.436-1.744-.436-.462 0-.924.051-1.386.154a7.312 7.312 0 0 1-1.385.128h-.847a21.295 21.295 0 0 1-1-.077 15.427 15.427 0 0 1-.949-.18 2.263 2.263 0 0 1-.77-.307.65.65 0 0 0-.257-.077 2.201 2.201 0 0 0-.359-.026 2.719 2.719 0 0 0-.385-.026h-.256c-.513 0-.924.026-1.231.077-.291.052-.556.12-.796.206-.222.085-.462.188-.718.307a8.085 8.085 0 0 1-1.026.334c-.325.085-.565.188-.719.308a.932.932 0 0 0-.282.436 1.809 1.809 0 0 0-.077.564c.017.223.017.48 0 .77l-.051.616v.59c0 .615.017 1.231.051 1.847.035.615.052 1.24.052 1.872 0 .394-.043.779-.129 1.155a6.477 6.477 0 0 0-.102 1.154c0 .36.077.607.231.744.154.137.325.24.513.308.188.069.359.146.513.231.171.086.256.257.256.513.12.017.231.034.334.052h.359a6.41 6.41 0 0 0 1.693-.231c.565-.171 1.12-.325 1.668-.462.342-.086.59-.334.744-.744.154-.41.256-.872.307-1.385.052-.53.077-1.052.077-1.565 0-.513.026-.907.077-1.18.035-.223.112-.437.231-.642.137-.205.3-.385.488-.539.188-.153.393-.273.615-.359.223-.102.445-.154.667-.154.24 0 .454.052.642.154.376.188.641.428.795.719.171.273.282.581.334.923.051.342.068.693.051 1.052 0 .36.017.71.051 1.052.051.462.077.915.077 1.36 0 .82-.043 1.624-.128 2.411-.069.787-.103 1.59-.103 2.411 0 .445.026.881.077 1.309.052.427.146.855.282 1.282.086.308.129.59.129.847 0 .29-.035.573-.103.847a4.61 4.61 0 0 0-.051 1.334c.034.137.051.29.051.462 0 .256-.068.53-.205.82-.12.274-.274.53-.462.77-.188.222-.41.41-.667.564-.239.154-.47.231-.693.231-.307 0-.598-.12-.872-.359a5.617 5.617 0 0 1-.693-.846 5.776 5.776 0 0 1-.487-.873c-.103-.273-.154-.436-.154-.487 0-.086.034-.145.103-.18a1.79 1.79 0 0 1 .256-.128c.086-.051.163-.103.231-.154a.34.34 0 0 0 .128-.282c0-.086-.042-.145-.128-.18a.898.898 0 0 0-.256-.128 2.34 2.34 0 0 1-.257-.18.564.564 0 0 1-.103-.359.482.482 0 0 1 .18-.41.843.843 0 0 0 .128-.103.172.172 0 0 0 .052-.128c0-.137-.06-.308-.18-.513a3.209 3.209 0 0 0-.462-.642 2.393 2.393 0 0 0-.59-.512c-.205-.154-.393-.231-.564-.231a2.06 2.06 0 0 0-.77.153 2.269 2.269 0 0 1-.769.129c-.223 0-.437-.043-.642-.129a1.352 1.352 0 0 0-.564-.128c-.171 0-.359.077-.565.231-.205.137-.41.308-.615.513a20.03 20.03 0 0 0-.975 1.052c-.137.137-.214.342-.231.616-.017.256-.026.479-.026.667 0 .598.035 1.188.103 1.77.086.564.128 1.146.128 1.744 0 .257-.008.513-.025.77v1.565c.017.325.059.65.128.975.068.325.171.615.308.872.137.256.325.419.564.487.359.12.761.163 1.206.129h.513c.445 0 .864.042 1.257.128.393.085.693.308.898.667.171.29.291.616.359.975.086.342.128.684.128 1.026 0 .205-.025.436-.077.693a2.072 2.072 0 0 1-.231.718 1.633 1.633 0 0 1-.436.539.992.992 0 0 1-.641.205c-.496 0-1.026-.06-1.591-.18a8.883 8.883 0 0 0-1.641-.154c-.428 0-.847.052-1.257.154-.667.188-1.334.308-2.001.36a27.12 27.12 0 0 1-3.233.05 6.274 6.274 0 0 1-1.283-.179 3.47 3.47 0 0 1-1.026-.385.888.888 0 0 1-.41-.77c0-.358.025-.743.077-1.154.051-.41.154-.786.308-1.129.171-.342.402-.624.692-.846.291-.222.676-.334 1.155-.334.137 0 .282.009.436.026.154.017.308.026.462.026.325 0 .564-.052.718-.154.154-.12.282-.248.385-.385.102-.137.205-.265.308-.385.102-.12.256-.197.461-.23a22.323 22.323 0 0 0-.154-1.591 16.87 16.87 0 0 1-.077-1.616c0-.462.043-.915.129-1.36.085-.445.239-.872.461-1.283-.171-.188-.299-.513-.384-.975a12.557 12.557 0 0 1-.18-1.41 35.6 35.6 0 0 1-.026-1.232v-.513c0-.29.043-.573.129-.847.102-.29.154-.581.154-.872 0-.137-.017-.256-.052-.36a2.743 2.743 0 0 1-.025-.384c0-.205.017-.35.051-.436a.376.376 0 0 1 .128-.18.855.855 0 0 0 .129-.102c.034-.052.051-.146.051-.282 0-.428-.06-.847-.18-1.258a5.618 5.618 0 0 1-.154-1.308c0-.393.035-.778.103-1.154.085-.394.128-.787.128-1.18 0-.77-.043-1.531-.128-2.284a26.51 26.51 0 0 1-.103-2.334c0-.393-.034-.83-.102-1.308a5.206 5.206 0 0 0-.385-1.386 3.095 3.095 0 0 0-.77-1.077c-.325-.291-.735-.436-1.231-.436-.24 0-.479.017-.718.051a9.068 9.068 0 0 1-.693.026c-.222 0-.436-.017-.641-.052a1.694 1.694 0 0 1-.59-.282 3.73 3.73 0 0 0-.231-.95 2.592 2.592 0 0 1-.18-.948.73.73 0 0 1 .282-.59c.205-.154.462-.274.77-.36.308-.085.65-.145 1.026-.18.393-.033.787-.05 1.18-.05.496 0 .958.017 1.385.05.445.018.779.027 1.001.027.239 0 .53-.009.872-.026.359-.017.71-.051 1.052-.103.359-.068.684-.17.975-.308a1.35 1.35 0 0 0 .641-.59c.205 0 .385.043.539.129.154.068.308.154.462.256l.461.257c.154.068.325.102.514.102.239 0 .461-.05.667-.154.222-.12.453-.18.692-.18.223 0 .419.052.59.155.171.085.368.128.59.128a6.03 6.03 0 0 0 1.36-.154l1.385-.308c.462-.12.915-.23 1.36-.333a6.373 6.373 0 0 1 1.385-.154c.325 0 .625.051.898.154.291.085.556.248.795.487a5.974 5.974 0 0 1 2.309-.436c.103 0 .325.017.667.051.342.035.702.077 1.078.129a14 14 0 0 1 1.026.128c.308.051.479.103.513.154.103.085.18.23.231.436.051.205.094.428.128.667l.154.667c.051.205.128.36.231.462a.64.64 0 0 0 .257.154c.119.017.23.042.333.077a.647.647 0 0 1 .257.154c.085.05.136.145.154.282.034.41.059.812.076 1.206.018.376.086.77.206 1.18.102.359.222.735.359 1.128.137.394.265.787.385 1.18.137.394.248.787.333 1.18.086.394.128.779.128 1.155zm-27.065 24.756c0-.273-.059-.513-.179-.718-.103-.205-.299-.325-.59-.36a.85.85 0 0 1-.026.206v.18c0 .273.051.513.154.718.12.205.325.325.616.359v-.18a.847.847 0 0 0 .025-.205zM372.157 3.463c0 .188-.069.36-.205.513-.12.154-.274.308-.462.462a6.148 6.148 0 0 1-.539.385c-.188.12-.342.23-.462.333a1.6 1.6 0 0 1-1.052.36c-.273 0-.538-.035-.795-.103a2.787 2.787 0 0 0-.769-.103.464.464 0 0 0-.283.077 1.462 1.462 0 0 1-.641.231 8.062 8.062 0 0 1-.667.026c-.137 0-.325-.06-.564-.18-.223-.137-.342-.273-.36-.41l.18-.18c-.188.069-.316.146-.385.231a.913.913 0 0 0-.154.282c-.017.103-.034.214-.051.334-.017.12-.06.24-.128.359a.547.547 0 0 1-.411.308c-.171.034-.35.111-.538.23-.172.12-.325.343-.462.668-.137.308-.206.83-.206 1.565 0 .325.018.641.052.949.034.308.051.616.051.923 0 .616-.051 1.232-.154 1.847a10.978 10.978 0 0 0-.154 1.848c0 .376-.06.735-.179 1.077a3.716 3.716 0 0 0-.154 1.078c0 .53.222.897.667 1.103-.12.051-.214.188-.282.41a5.352 5.352 0 0 0-.18.718c-.034.257-.06.514-.077.77V20.37c0 .12.009.248.026.385l.051.36a.41.41 0 0 0 .103.23.699.699 0 0 1 .205.513c0 .206-.034.41-.103.616a1.722 1.722 0 0 0-.102.59c0 .838.051 1.676.154 2.514.119.821.179 1.65.179 2.489 0 .547-.06 1.094-.179 1.641a8.859 8.859 0 0 0-.154 1.642c0 .496.085.89.256 1.18.171.291.402.513.693.667.291.154.624.257 1 .308.377.052.77.077 1.18.077.65 0 1.292-.051 1.924-.154.65-.12 1.292-.18 1.925-.18.632 0 1.12.197 1.462.59.359.394.539.899.539 1.514 0 .462-.077.898-.231 1.309a2.836 2.836 0 0 1-.616 1.026 2.644 2.644 0 0 1-.949.718 3.071 3.071 0 0 1-1.283.257c-.342 0-.727-.043-1.154-.129a21.249 21.249 0 0 0-2.053-.307 28.119 28.119 0 0 0-2.103-.077c-.599 0-1.198.008-1.796.025-.599.035-1.197.052-1.796.052-.718 0-1.428-.009-2.129-.026a87.331 87.331 0 0 0-2.129-.026c-.257 0-.505-.043-.744-.128a2.128 2.128 0 0 0-.719-.128c-.171 0-.367.025-.59.077-.222.068-.462.136-.718.205-.24.068-.496.128-.77.18a3.369 3.369 0 0 1-.821.102c-.632 0-1.18-.145-1.642-.436-.461-.274-.692-.761-.692-1.462a2.6 2.6 0 0 1 .077-.642c.017-.154.094-.367.231-.641.154-.274.325-.539.513-.795.205-.274.41-.505.615-.693.223-.188.419-.282.59-.282.137 0 .266.034.385.102.137.069.282.154.436.257.171.086.368.162.59.23.223.07.488.103.796.103a10.9 10.9 0 0 0 1.924-.179 6.183 6.183 0 0 0 1.821-.616 4.246 4.246 0 0 0 1.386-1.18c.359-.496.538-1.111.538-1.847 0-.274-.017-.539-.051-.795l-.103-.821a28.284 28.284 0 0 1-.179-2.694c-.017-.906-.026-1.813-.026-2.72 0-.598.077-1.17.231-1.718a6.596 6.596 0 0 0 .231-1.744c0-.343-.06-.667-.18-.975a2.611 2.611 0 0 1-.179-.95c0-.153.017-.307.051-.461a1.54 1.54 0 0 0 .077-.488c0-.376-.043-.735-.128-1.077a5.697 5.697 0 0 1-.103-1.078c0-.598.06-1.197.18-1.795a8.026 8.026 0 0 0 .205-1.796c0-.36-.043-.719-.128-1.078-.086-.359-.18-.71-.283-1.051a96.583 96.583 0 0 1-.256-1.052 4.611 4.611 0 0 1-.128-1.078c0-.222.025-.453.077-.692a1.322 1.322 0 0 0-.437-.565 5.397 5.397 0 0 0-.615-.385l-.667-.359a1.288 1.288 0 0 1-.488-.513c-.136.017-.222.086-.256.205-.034.103-.06.223-.077.36-.017.12-.051.239-.103.359-.034.102-.128.162-.282.18-.479.05-.966.093-1.462.128-.479.034-.958.05-1.437.05-.274 0-.616-.016-1.026-.05a5.311 5.311 0 0 1-1.154-.231 2.69 2.69 0 0 1-.924-.513c-.257-.223-.385-.53-.385-.924 0-.24.051-.487.154-.744.12-.274.257-.539.411-.795.171-.257.35-.496.538-.719.206-.239.385-.444.539-.615.12-.12.299-.223.539-.308.239-.086.504-.145.795-.18.308-.034.633-.06.975-.077a24.923 24.923 0 0 1 2.206 0h.924c.427 0 .949-.008 1.565-.025a49.246 49.246 0 0 0 1.795-.129 41.844 41.844 0 0 0 1.488-.153c.428-.069.65-.137.667-.206.103.052.223.137.359.257l.462.308c.171.102.334.196.488.282.154.085.273.128.359.128.102 0 .179-.034.231-.102a.934.934 0 0 0 .154-.283c.051-.102.085-.205.102-.308a2.15 2.15 0 0 0 .026-.282h.18c.376 0 .624.111.743.334.137.222.206.487.206.795a.571.571 0 0 1-.026.18v.154c.171-.035.291-.112.359-.231.086-.137.154-.274.205-.41.052-.138.112-.257.18-.36.086-.103.222-.154.41-.154.069 0 .172.017.308.051h.18c.376.308.667.548.872.719.222.17.394.299.513.385.12.068.197.11.231.128.034.017.06.025.077.025.034 0 .094.009.18.026.102.017.154.017.154 0 0-.068-.043-.128-.129-.18a1.685 1.685 0 0 0-.256-.205 3.126 3.126 0 0 1-.257-.23.443.443 0 0 1-.102-.283c.205 0 .367-.025.487-.077.12-.068.222-.137.308-.205a3.12 3.12 0 0 1 .256-.23.68.68 0 0 1 .385-.103c.223 0 .394.034.513.102.12.069.223.146.308.231.086.068.163.137.231.205a.381.381 0 0 0 .282.103.662.662 0 0 0 .205-.026.961.961 0 0 1 .231-.025c.12 0 .197.05.231.154.034.102.06.196.077.282.052.256.094.453.128.59.035.137.077.256.129.359.051.103.111.214.179.333.086.103.197.257.334.462a.718.718 0 0 1 .154.436zm-12.853 1.693c.103-.136.077-.29-.077-.461-.154-.171-.325-.257-.513-.257-.205 0-.342.103-.41.308-.052.188-.077.36-.077.513a.63.63 0 0 0 .154.282.893.893 0 0 0 .179.18.376.376 0 0 0 .231.077c.137 0 .239-.026.308-.077a.687.687 0 0 0 .154-.231.916.916 0 0 0 .051-.334zM403.66 20.164c0 .36-.034.71-.103 1.052-.068.325-.145.658-.231 1-.085.325-.162.659-.23 1a5.178 5.178 0 0 0-.103 1.027c0 .137.009.274.026.41.034.12.051.249.051.385 0 .342-.06.667-.18.975a5.935 5.935 0 0 1-.384.898 2.274 2.274 0 0 0-.257.795l-.051.821c0 .274-.026.548-.077.821-.052.274-.154.53-.308.77l-.154.77c-.051.324-.12.555-.205.692-.017.034-.069.06-.154.077-.086.017-.18.034-.282.051a1.47 1.47 0 0 0-.334.103.815.815 0 0 0-.308.23.906.906 0 0 0-.205.36 4.885 4.885 0 0 1-.18.462 1.64 1.64 0 0 1-.256.41.442.442 0 0 1-.359.154c-.154 0-.291-.025-.411-.077a3.415 3.415 0 0 0-.359-.18 1.623 1.623 0 0 0-.359-.153.78.78 0 0 0-.436.025c.051.035.068.12.051.257-.017.12-.017.248 0 .385a.827.827 0 0 0 .231.385c.12.12.334.18.641.18a4.362 4.362 0 0 0 .898-.103c-.137.376-.299.675-.487.898a4.11 4.11 0 0 1-.641.564 51.03 51.03 0 0 1-.719.487c-.239.154-.479.36-.718.616-.291.29-.573.47-.847.539-.256.068-.564.154-.923.256-.411.12-.701.265-.872.436-.172.171-.36.334-.565.488-.205.154-.487.282-.846.385-.343.12-.89.18-1.642.18-.684 0-1.369-.026-2.053-.078a39.649 39.649 0 0 1-2.001-.205 2.827 2.827 0 0 1-.769-.18 3.117 3.117 0 0 1-.539-.256 7.629 7.629 0 0 1-.513-.282 4.568 4.568 0 0 0-.641-.308 7.89 7.89 0 0 1-.488-.205 13.746 13.746 0 0 1-.59-.231 9.081 9.081 0 0 1-.564-.257 3.368 3.368 0 0 1-.411-.282.914.914 0 0 1-.256-.334l-.103-.41a2.332 2.332 0 0 0-.128-.41.567.567 0 0 0-.231-.334 9.592 9.592 0 0 1-.744-.128c-.24-.069-.479-.146-.718-.231a18.147 18.147 0 0 0-.206-.539 7.201 7.201 0 0 0-.179-.564 4.912 4.912 0 0 0-.642-.59 5.223 5.223 0 0 1-.538-.513 3.02 3.02 0 0 1-.411-.59c-.102-.24-.171-.548-.205-.924a5.385 5.385 0 0 0-.308-1.283 27.545 27.545 0 0 0-.487-1.257c-.154-.41-.3-.83-.436-1.257a4.82 4.82 0 0 1-.18-1.308c0-.462.094-.932.282-1.411a5.2 5.2 0 0 1-.923-2.283c-.12-.838-.18-1.676-.18-2.514v-.796c.017-.273.026-.538.026-.795 0-.29-.069-.513-.205-.667a1.044 1.044 0 0 1-.18-.616c0-.376.051-.744.154-1.103.12-.359.197-.727.231-1.103-.223-.034-.368-.12-.436-.256l.051-.103c.12-.205.214-.393.282-.564.086-.171.146-.334.18-.488.034-.154.068-.316.102-.487.035-.171.077-.368.129-.59.136-.702.307-1.386.513-2.053.222-.667.436-1.342.641-2.026a10.1 10.1 0 0 1 .821-2.078c.325-.599.829-1.155 1.514-1.668.29-.24.555-.496.795-.77.239-.273.41-.598.513-.974a.605.605 0 0 1 .282-.129c.103-.017.205-.025.308-.025h.205c.12 0 .231-.009.334-.026a.906.906 0 0 0 .333-.18c.257-.239.479-.41.667-.513.205-.102.479-.153.821-.153.24 0 .47.025.693.076.222.035.453.077.692.129.086-.086.206-.197.36-.334a1.72 1.72 0 0 1 .436-.308v.077c0 .069.008.137.025.206.035.05.094.077.18.077.222 0 .436-.052.641-.154.206-.103.419-.171.642-.206a9.526 9.526 0 0 0 1.488-.384c.496-.189 1-.283 1.513-.283.547 0 1.129.035 1.745.103a9.597 9.597 0 0 1 1.847.385 6.511 6.511 0 0 1 1.667.795 3.69 3.69 0 0 1 1.232 1.283c.137.24.273.427.41.564.137.12.274.231.411.334.136.085.273.18.41.282.137.085.282.214.436.385.325.376.582.786.77 1.231.205.428.487.812.846 1.155.445.41.77.906.975 1.487.223.582.334 1.172.334 1.77 0 .189-.026.377-.077.565a2.245 2.245 0 0 0-.077.59c0 .171.034.35.102.539.086.188.18.385.283.59.102.205.196.419.282.641.085.223.145.436.179.642.052.461.129.915.231 1.36.103.427.206.871.308 1.333.137.582.24 1.172.308 1.77.068.599.094 1.198.077 1.796zm-4.182-.18c0-.957-.085-1.906-.256-2.847l-.462-2.822a3.884 3.884 0 0 0-.333-.975 9.073 9.073 0 0 1-.36-.95 77.395 77.395 0 0 1-.59-1.846l-.564-1.847c-.12-.377-.359-.701-.718-.975-.36-.29-.779-.53-1.257-.718a8.391 8.391 0 0 0-1.565-.488 14.467 14.467 0 0 0-1.591-.308 11.454 11.454 0 0 0-1.436-.154 13.28 13.28 0 0 0-.975-.051l.333-.026-.282.026c-.376 0-.753-.017-1.129-.051a11.63 11.63 0 0 0-1.103-.052c-.308 0-.616.026-.923.077a1.566 1.566 0 0 0-.796.334l-1.59 1.257c-.496.376-.907.898-1.232 1.565-.102.222-.214.385-.333.487-.12.086-.24.18-.359.282a1.64 1.64 0 0 0-.283.308c-.085.12-.145.317-.179.59-.086.496-.188.992-.308 1.488a6.934 6.934 0 0 0-.154 1.463c0 .53-.051 1.06-.154 1.59a6.91 6.91 0 0 1-.436 1.514 8.954 8.954 0 0 1-.154.384c-.034.12-.051.248-.051.385 0 .257.06.48.179.667.12.171.18.325.18.462 0 .069-.026.111-.077.128a.248.248 0 0 0-.128.052c-.034.017-.077.068-.129.154-.034.085-.051.24-.051.461v1.514c.017.513.069 1.018.154 1.514.051.29.137.572.257.846.136.257.205.53.205.821 0 .188-.043.376-.128.565a1.403 1.403 0 0 0-.129.59c0 .239.069.436.206.59.136.136.273.299.41.487.103.137.188.316.257.539.085.205.162.402.23.59.086.188.163.35.231.487.069.137.146.205.231.205a.572.572 0 0 0 .18-.025.315.315 0 0 1 .179-.052c.342 0 .599.154.77.462.188.291.282.582.282.872 0 .24.069.445.205.616.137.154.3.3.488.436l.564.41c.205.12.376.257.513.411.223.257.394.428.513.513.137.086.257.146.36.18.102.017.196.034.282.051.102.017.231.077.385.18.188.137.376.29.564.462.205.154.402.299.59.436.53.376 1.12.607 1.77.692.667.069 1.317.103 1.95.103.256 0 .496-.06.718-.18.222-.12.445-.248.667-.384.222-.154.445-.291.667-.41a1.7 1.7 0 0 1 .77-.18c.222 0 .453.05.692.153.394-.598.77-1.077 1.129-1.436.359-.36.684-.71.975-1.052.291-.342.539-.735.744-1.18.205-.445.351-1.052.436-1.822a2.59 2.59 0 0 1 .257-.897c.154-.291.248-.59.282-.898a16.63 16.63 0 0 0 .128-2.053c.017-.684.077-1.368.18-2.052a13.384 13.384 0 0 0 .102-1.668z" fill="#fff"/><g clip-path="url(#a)" fill="#fff"><path d="M252.227 60.762c-6.988 1.193-14.197 4.446-19.078 8.675l-4.103 3.47v88.706h7.764V75.944l4.436-3.145c10.981-7.808 29.06-7.157 38.599 1.301l2.44 2.17v85.343h8.042l.61-43.051.221-43.703 4.215-2.602c11.092-7.157 28.506-6.29 37.712 1.843l2.44 2.17v85.343h8.652v-43.702l.221-44.353-3.549-3.253c-13.088-11.929-37.046-13.339-51.687-3.145-2.994 2.06-3.106 2.06-5.768 0-6.876-5.097-21.295-8.133-31.167-6.398zM380.683 61.237c-6.447 1.074-13.337 4.187-18.783 8.589l-4.224 3.328v76.328l3.668 3.328c1.889 1.718 6.336 4.509 9.669 6.012 5.447 2.469 7.448 2.791 17.784 2.791 13.337-.107 18.783-1.825 26.563-8.588l4.557-3.972V74.334L416.36 70.9c-5.112-4.83-12.782-8.266-21.006-9.662-3.89-.537-7.557-.966-8.225-.966-.556.107-3.445.537-6.446.966zm18.45 7.944c2.334.86 5.891 2.577 8.002 3.972l3.891 2.577-.223 35.964-.333 35.856-4.446 3.005c-9.447 6.442-24.674 6.442-34.9 0l-4.556-2.791V75.301l3.334-2.255c7.447-5.153 20.451-6.87 29.231-3.865zM457.699 61.338c-7.114 1.173-14.004 4.16-19.562 8.534l-4.112 3.2v88.541h8.299l.592-43.524.556-42.883 3.668-2.667c8.558-5.974 23.673-6.4 33.899-.854l5.779 3.094.334 43.417.222 43.31h8.892V73.179l-3.446-2.88c-5.557-4.374-13.448-7.788-21.117-9.068-3.891-.533-7.336-.96-7.669-.96-.334.107-3.223.533-6.335 1.067zM152.697 111.487v50.126h7.803V110.397h17.28c19.063 0 20.624.436 25.417 6.974 2.23 3.16 2.454 4.904 3.01 24.083l.558 20.159h8.361V142.87c0-21.794-.669-24.736-7.134-32.146l-3.122-3.596 4.125-4.577c5.574-6.429 7.915-14.82 6.243-22.012-1.561-6.756-5.686-12.75-11.706-16.999l-4.459-3.269h-46.376v51.216zm47.156-41.409c3.679 2.834 7.47 10.57 7.47 15.365-.112 5.34-3.568 12.205-8.139 15.583-3.79 2.833-3.901 2.942-20.957 2.615l-17.169-.327-.334-17.762L160.5 67.9h18.172c16.611 0 18.618.218 21.181 2.18zM510.373 111.321v50.292h9.129V60.272H510.373v51.049zM.277 110.942v50.67h7.745l.221-22.25.332-22.252 5.312-3.304c4.536-2.754 6.75-3.305 14.716-3.745 10.401-.551 16.819 1.101 22.573 6.058l3.32 2.754V161.612h3.319l4.426.001V60.271h-7.746v24.785c0 13.659-.221 24.784-.442 24.784-.222 0-3.099-1.211-6.307-2.643-3.32-1.432-8.52-2.975-11.619-3.415-6.75-.881-18.036.991-23.9 3.965l-4.205 2.093V60.271H.277v50.671zM106.058 61.644c-1.106 2.857-35.104 99.53-35.104 99.969H80.083l15.574-44.492 15.131-43.667s-4.727-11.79-4.73-11.81zM111.812 99.764l10.733 30.98 10.843 30.869h9.517l-3.32-9.118c-1.881-4.943-7.635-21.092-12.836-35.923-5.2-14.83-10.179-28.343-10.179-28.343l-4.758 11.535z"/><path fill-rule="evenodd" clip-rule="evenodd" d="m532.78 161.613 33.195-99.68 33.61 99.68H532.78zm55.245-8.307h-43.627l21.577-65.207 22.05 65.207zM323.223 176.995v38.182h-2.463v-38.182h2.463zM352.296 176.995h19.06v2.463h-8.299v35.719h-2.462v-35.719h-8.299v-2.463z"/><path d="M119.573 208.621a1.244 1.244 0 1 0-1.801 1.72l1.801-1.72zm16.942-30.394v-1.246h-2.49v1.246h2.49zm-15.263 32.156-1.679-1.762-1.801 1.72 1.679 1.762 1.801-1.72zm15.263-4.996v-27.16h-2.49v27.16h2.49zm-9.822 7.313c-.204 0-.288 0-.357-.002l-.051 2.492c.101.002.215.002.408.002V212.7zm-7.242-.597c.118.124.19.199.26.27l1.766-1.757c-.049-.049-.099-.102-.225-.233l-1.801 1.72zm6.885.595a7.045 7.045 0 0 1-4.859-2.082l-1.766 1.757a9.545 9.545 0 0 0 6.574 2.817l.051-2.492zm4.969-1.618c-.07.056-.098.08-.126.101l1.543 1.956.145-.117-1.562-1.94zm-4.612 4.112.213-.001-.025-2.491h-.188v2.492zm4.486-4.011a7.057 7.057 0 0 1-4.298 1.519l.025 2.491a9.542 9.542 0 0 0 5.816-2.054l-1.543-1.956zm1.688 1.839c.089-.072.143-.114.194-.158l-1.589-1.918-.167.136 1.562 1.94zm1.158-7.633-.001.216 2.49.033.001-.249h-2.49zm-.964 7.475a9.555 9.555 0 0 0 3.453-7.226l-2.49-.033a7.057 7.057 0 0 1-2.552 5.341l1.589 1.918zM270.61 208.621a1.246 1.246 0 0 0-1.801 1.72l1.801-1.72zm16.942-30.394v-1.246h-2.49v1.246h2.49zm-15.262 32.156-1.68-1.762-1.801 1.72 1.679 1.762 1.802-1.72zm15.262-4.996v-27.16h-2.49v27.16h2.49zm-9.822 7.313c-.204 0-.288 0-.357-.002l-.051 2.492c.101.002.216.002.408.002V212.7zm-7.242-.597c.119.124.19.199.261.27l1.766-1.757c-.049-.049-.1-.102-.225-.233l-1.802 1.72zm6.885.595a7.04 7.04 0 0 1-4.858-2.082l-1.766 1.757a9.54 9.54 0 0 0 6.573 2.817l.051-2.492zm4.969-1.618-.125.101 1.542 1.956.146-.117-1.563-1.94zm-4.612 4.112.214-.001-.026-2.491h-.188v2.492zm4.487-4.011a7.06 7.06 0 0 1-4.299 1.519l.026 2.491a9.54 9.54 0 0 0 5.815-2.054l-1.542-1.956zm1.688 1.839c.088-.072.142-.114.193-.158l-1.588-1.918-.168.136 1.563 1.94zm1.157-7.633-.001.216 2.49.033.001-.249h-2.49zm-.964 7.475a9.555 9.555 0 0 0 3.453-7.226l-2.49-.033a7.06 7.06 0 0 1-2.551 5.341l1.588 1.918z"/><path fill-rule="evenodd" clip-rule="evenodd" d="M172.186 176.995v38.182h-2.463v-38.182h2.463zM400.575 179.042a7.963 7.963 0 0 1 5.328-2.047h1.951a8.31 8.31 0 0 1 5.88 2.438l1.194 1.196a4.24 4.24 0 0 1 1.241 2.997v1.231h-2.462v-1.231a1.78 1.78 0 0 0-.521-1.257l-1.194-1.195a5.848 5.848 0 0 0-4.138-1.716h-1.951a5.495 5.495 0 0 0-3.68 1.414 5.51 5.51 0 0 0-1.822 4.094v.227a6.02 6.02 0 0 0 1.898 4.388l10.947 10.287a9.27 9.27 0 0 1 2.923 6.759v.579a7.973 7.973 0 0 1-7.964 7.971h-2.302a7.958 7.958 0 0 1-5.328-2.047m0 0-.995-.896a4.965 4.965 0 0 1-1.641-3.688v-1.231h2.462v1.231c0 .709.301 1.384.827 1.858l.995.897a5.5 5.5 0 0 0 3.68 1.413h2.302a5.501 5.501 0 0 0 3.68-1.413v-.001a5.509 5.509 0 0 0 1.822-4.094v-.579a6.808 6.808 0 0 0-2.147-4.964l-10.947-10.287-.001-.001a8.485 8.485 0 0 1-2.673-6.182v-.227c0-2.259.958-4.412 2.636-5.924"/><path fill-rule="evenodd" clip-rule="evenodd" d="M115.732 192.066h354.583v2.462H115.732v-2.462zM115.732 197.811h354.583v2.463H115.732v-2.463z"/><path fill-rule="evenodd" clip-rule="evenodd" d="M205.609 177.291h2.462v30.442c.006.031.013.073.024.123a7.254 7.254 0 0 0 1.049 2.485c.876 1.301 2.463 2.655 5.493 2.655 3.031 0 4.618-1.354 5.494-2.655a7.254 7.254 0 0 0 1.049-2.485c.011-.05.018-.092.024-.123v-30.442h2.462v30.617l-.01.078-1.221-.156c1.221.156 1.221.157 1.221.158v.001l-.001.004-.001.008-.003.025-.012.076a9.056 9.056 0 0 1-.265 1.092 9.707 9.707 0 0 1-1.2 2.522c-1.278 1.897-3.59 3.742-7.537 3.742-3.946 0-6.258-1.845-7.536-3.742a9.707 9.707 0 0 1-1.418-3.363 5.261 5.261 0 0 1-.047-.251l-.012-.076-.003-.025-.001-.008-.001-.004v-.001c0-.001 0-.002 1.221-.158l-1.221.156-.01-.078v-30.617zm2.452 30.379v-.001l-.001-.002.001.003zm13.153 0 .001-.003-.001.002v.001zM447.743 177.291h2.462v30.442c.006.031.013.073.024.123a7.254 7.254 0 0 0 1.049 2.485c.877 1.301 2.463 2.655 5.494 2.655 3.03 0 4.617-1.354 5.493-2.655a7.254 7.254 0 0 0 1.049-2.485c.011-.05.018-.092.024-.123v-30.442h2.462v30.617l-.01.078-1.221-.156c1.221.156 1.221.157 1.221.158v.001l-.001.004-.001.008-.003.025-.012.076a9.056 9.056 0 0 1-.265 1.092 9.707 9.707 0 0 1-1.2 2.522c-1.278 1.897-3.59 3.742-7.536 3.742-3.947 0-6.259-1.845-7.537-3.742a9.707 9.707 0 0 1-1.418-3.363 6.94 6.94 0 0 1-.047-.251l-.012-.076-.003-.025-.001-.008-.001-.004v-.001c0-.001 0-.002 1.221-.158l-1.221.156-.01-.078v-30.617zm2.452 30.379v-.001l-.001-.002.001.003zm13.153 0 .001-.003-.001.002v.001z"/></g><defs><clipPath id="a"><path fill="#fff" transform="translate(0 60.271)" d="M0 0h600v155.336H0z"/></clipPath></defs></svg>